HIERARCHY
ROOT reference
{
  OFFSET 0 0 0
  CHANNELS 6 Xposition Yposition Zposition Zrotation Xrotation Yrotation
  JOINT Hips
  {
    OFFSET 355.919 86.4685 225.794
    CHANNELS 3 Zrotation Xrotation Yrotation
    JOINT RightUpLeg
    {
      OFFSET -9.27022 -1.53975 0.0125073
      CHANNELS 3 Zrotation Xrotation Yrotation
      JOINT RightLeg
      {
        OFFSET 0.013591 -41.8786 0.0152335
        CHANNELS 3 Zrotation Xrotation Yrotation
        JOINT RightFoot
        {
          OFFSET -0.635566 -43.1371 -0.638083
          CHANNELS 3 Zrotation Xrotation Yrotation
          End Site
          {
            OFFSET 0 -7.69 17.5
          }
        }
      }
    }
    JOINT LeftUpLeg
    {
      OFFSET 9.3307 -1.62449 -0.0651281
      CHANNELS 3 Zrotation Xrotation Yrotation
      JOINT LeftLeg
      {
        OFFSET 0.136006 -41.8606 -0.0682192
        CHANNELS 3 Zrotation Xrotation Yrotation
        JOINT LeftFoot
        {
          OFFSET 0.555276 -40.3296 1.11688
          CHANNELS 3 Zrotation Xrotation Yrotation
          End Site
          {
            OFFSET 0 -7.69 17.5
          }
        }
      }
    }
    JOINT Spine
    {
      OFFSET 0.0523142 14.2998 0.0636653
      CHANNELS 3 Zrotation Xrotation Yrotation
      JOINT Spine1
      {
        OFFSET 0.0411785 9.71676 0.0113233
        CHANNELS 3 Zrotation Xrotation Yrotation
        JOINT Spine2
        {
          OFFSET 0.0674534 10.1151 -0.00111457
          CHANNELS 3 Zrotation Xrotation Yrotation
          JOINT Spine3
          {
            OFFSET 0.048863 9.72171 0.0174249
            CHANNELS 3 Zrotation Xrotation Yrotation
            JOINT Neck
            {
              OFFSET 0.180558 10.3768 0.0617075
              CHANNELS 3 Zrotation Xrotation Yrotation
              JOINT Head
              {
                OFFSET 0.135918 9.47305 0.0380206
                CHANNELS 3 Zrotation Xrotation Yrotation
                End Site
                {
                  OFFSET 0 15.95 0
                }
              }
            }
            JOINT RightShoulder
            {
              OFFSET -3.15694 6.89408 0.00348883
              CHANNELS 3 Zrotation Xrotation Yrotation
              JOINT RightArm
              {
                OFFSET -12.7409 -0.0031918 0.045926
                CHANNELS 3 Zrotation Xrotation Yrotation
                JOINT RightForeArm
                {
                  OFFSET -26.5086 -0.0806184 0.00400063
                  CHANNELS 3 Zrotation Xrotation Yrotation
                  JOINT RightHand
                  {
                    OFFSET -26.0338 -0.025514 0.155859
                    CHANNELS 3 Zrotation Xrotation Yrotation
                    JOINT RightHandThumb1
                    {
                      OFFSET -2.48905 0.190105 3.12053
                      CHANNELS 3 Zrotation Xrotation Yrotation
                      JOINT RightHandThumb2
                      {
                        OFFSET -3.68274 0 0
                        CHANNELS 3 Zrotation Xrotation Yrotation
                        JOINT RightHandThumb3
                        {
                          OFFSET -2.55832 0 0
                          CHANNELS 3 Zrotation Xrotation Yrotation
                          End Site
                          {
                            OFFSET -2.194 0 0
                          }
                        }
                      }
                    }
                    JOINT RightInHandIndex
                    {
                      OFFSET -3.22368 0.508421 1.97842
                      CHANNELS 3 Zrotation Xrotation Yrotation
                      JOINT RightHandIndex1
                      {
                        OFFSET -5.21684 -0.091368 0.999158
                        CHANNELS 3 Zrotation Xrotation Yrotation
                        JOINT RightHandIndex2
                        {
                          OFFSET -3.61937 0 0
                          CHANNELS 3 Zrotation Xrotation Yrotation
                          JOINT RightHandIndex3
                          {
                            OFFSET -2.0521 0 0
                            CHANNELS 3 Zrotation Xrotation Yrotation
                            End Site
                            {
                              OFFSET -1.805 0 0
                            }
                          }
                        }
                      }
                    }
                    JOINT RightInHandMiddle
                    {
                      OFFSET -3.38211 0.517263 0.756737
                      CHANNELS 3 Zrotation Xrotation Yrotation
                      JOINT RightHandMiddle1
                      {
                        OFFSET -5.17411 -0.084 0.313895
                        CHANNELS 3 Zrotation Xrotation Yrotation
                        JOINT RightHandMiddle2
                        {
                          OFFSET -3.94947 0 0
                          CHANNELS 3 Zrotation Xrotation Yrotation
                          JOINT RightHandMiddle3
                          {
                            OFFSET -2.47579 0 0
                            CHANNELS 3 Zrotation Xrotation Yrotation
                            End Site
                            {
                              OFFSET -1.975 0 0
                            }
                          }
                        }
                      }
                    }
                    JOINT RightInHandRing
                    {
                      OFFSET -3.36516 0.537895 -0.128947
                      CHANNELS 3 Zrotation Xrotation Yrotation
                      JOINT RightHandRing1
                      {
                        OFFSET -4.63474 -0.022105 -0.478947
                        CHANNELS 3 Zrotation Xrotation Yrotation
                        JOINT RightHandRing2
                        {
                          OFFSET -3.44238 0 0
                          CHANNELS 3 Zrotation Xrotation Yrotation
                          JOINT RightHandRing3
                          {
                            OFFSET -2.3881 0 0
                            CHANNELS 3 Zrotation Xrotation Yrotation
                            End Site
                            {
                              OFFSET -1.857 0 0
                            }
                          }
                        }
                      }
                    }
                    JOINT RightInHandPinky
                    {
                      OFFSET -3.16105 0.469368 -1.20179
                      CHANNELS 3 Zrotation Xrotation Yrotation
                      JOINT RightHandPinky1
                      {
                        OFFSET -4.14105 -0.022105 -1.09053
                        CHANNELS 3 Zrotation Xrotation Yrotation
                        JOINT RightHandPinky2
                        {
                          OFFSET -2.75653 0 0
                          CHANNELS 3 Zrotation Xrotation Yrotation
                          JOINT RightHandPinky3
                          {
                            OFFSET -1.74189 0 0
                            CHANNELS 3 Zrotation Xrotation Yrotation
                            End Site
                            {
                              OFFSET -1.645 0 0
                            }
                          }
                        }
                      }
                    }
                  }
                }
              }
            }
            JOINT LeftShoulder
            {
              OFFSET 3.22505 6.94333 0.022328
              CHANNELS 3 Zrotation Xrotation Yrotation
              JOINT LeftArm
              {
                OFFSET 12.8536 -0.0213048 -0.00476292
                CHANNELS 3 Zrotation Xrotation Yrotation
                JOINT LeftForeArm
                {
                  OFFSET 26.4992 -0.0497473 -0.102272
                  CHANNELS 3 Zrotation Xrotation Yrotation
                  JOINT LeftHand
                  {
                    OFFSET 25.9818 -0.0182282 -0.0189166
                    CHANNELS 3 Zrotation Xrotation Yrotation
                    JOINT LeftHandThumb1
                    {
                      OFFSET 2.48905 0.190105 3.12053
                      CHANNELS 3 Zrotation Xrotation Yrotation
                      JOINT LeftHandThumb2
                      {
                        OFFSET 3.68274 0 0
                        CHANNELS 3 Zrotation Xrotation Yrotation
                        JOINT LeftHandThumb3
                        {
                          OFFSET 2.55832 0 0
                          CHANNELS 3 Zrotation Xrotation Yrotation
                          End Site
                          {
                            OFFSET 2.194 0 0
                          }
                        }
                      }
                    }
                    JOINT LeftInHandIndex
                    {
                      OFFSET 3.22368 0.508421 1.97842
                      CHANNELS 3 Zrotation Xrotation Yrotation
                      JOINT LeftHandIndex1
                      {
                        OFFSET 5.21684 -0.091368 0.999158
                        CHANNELS 3 Zrotation Xrotation Yrotation
                        JOINT LeftHandIndex2
                        {
                          OFFSET 3.61937 0 0
                          CHANNELS 3 Zrotation Xrotation Yrotation
                          JOINT LeftHandIndex3
                          {
                            OFFSET 2.0521 0 0
                            CHANNELS 3 Zrotation Xrotation Yrotation
                            End Site
                            {
                              OFFSET 1.805 0 0
                            }
                          }
                        }
                      }
                    }
                    JOINT LeftInHandMiddle
                    {
                      OFFSET 3.38211 0.517263 0.756737
                      CHANNELS 3 Zrotation Xrotation Yrotation
                      JOINT LeftHandMiddle1
                      {
                        OFFSET 5.17411 -0.084 0.313895
                        CHANNELS 3 Zrotation Xrotation Yrotation
                        JOINT LeftHandMiddle2
                        {
                          OFFSET 3.94947 0 0
                          CHANNELS 3 Zrotation Xrotation Yrotation
                          JOINT LeftHandMiddle3
                          {
                            OFFSET 2.47579 0 0
                            CHANNELS 3 Zrotation Xrotation Yrotation
                            End Site
                            {
                              OFFSET 1.975 0 0
                            }
                          }
                        }
                      }
                    }
                    JOINT LeftInHandRing
                    {
                      OFFSET 3.36516 0.537895 -0.128947
                      CHANNELS 3 Zrotation Xrotation Yrotation
                      JOINT LeftHandRing1
                      {
                        OFFSET 4.63474 -0.022105 -0.478947
                        CHANNELS 3 Zrotation Xrotation Yrotation
                        JOINT LeftHandRing2
                        {
                          OFFSET 3.44238 0 0
                          CHANNELS 3 Zrotation Xrotation Yrotation
                          JOINT LeftHandRing3
                          {
                            OFFSET 2.3881 0 0
                            CHANNELS 3 Zrotation Xrotation Yrotation
                            End Site
                            {
                              OFFSET 1.857 0 0
                            }
                          }
                        }
                      }
                    }
                    JOINT LeftInHandPinky
                    {
                      OFFSET 3.16105 0.469368 -1.20179
                      CHANNELS 3 Zrotation Xrotation Yrotation
                      JOINT LeftHandPinky1
                      {
                        OFFSET 4.14105 -0.022105 -1.09053
                        CHANNELS 3 Zrotation Xrotation Yrotation
                        JOINT LeftHandPinky2
                        {
                          OFFSET 2.75653 0 0
                          CHANNELS 3 Zrotation Xrotation Yrotation
                          JOINT LeftHandPinky3
                          {
                            OFFSET 1.74189 0 0
                            CHANNELS 3 Zrotation Xrotation Yrotation
                            End Site
                            {
                              OFFSET 1.645 0 0
                            }
                          }
                        }
                      }
                    }
                  }
                }
              }
            }
          }
        }
      }
    }
  }
}
MOTION
Frames: 2
Frame Time: 0.00833333
6.000000000000000000e+02 0.000000000000000000e+00 0.000000000000000000e+00 0.000000000000000000e+00 0.000000000000000000e+00 0.000000000000000000e+00 3.111415097296468257e-01 7.509190646712087247e-01 1.719859986562426224e+00 -1.634778721658040279e+00 -1.288327356337120866e-01 -2.323815395157220465e+00 8.856198621927885428e-01 3.787085190505470322e-01 -7.778628142682020297e-01 -1.581656210930190376e+00 4.520408580062840187e-01 5.892665228851661219e-01 1.113526559177876185e-01 1.422442656839700004e-01 -5.123108971277086088e-01 -5.477493382691980273e-01 -1.257066695440462345e+00 4.637656692524420587e-01 -2.968437288997924917e+00 -1.131997984579164118e+00 -2.937381535898839324e+00 1.452257266807584768e-01 3.170339168766698190e-01 3.417761882229439774e-01 3.703007355061225386e-02 1.262585342457410720e-01 7.748412927054784682e-02 6.234266543428040874e-02 2.320038056708233487e-01 1.016313842382022131e-01 4.634911340515397715e-02 -2.359827381078514683e-02 -2.315570819962431762e-02 2.338778652208969855e-01 4.736936273454668278e-01 -1.893723070096926531e+00 9.123658768572654454e-01 -1.932981192700303108e+00 1.421338518769037051e+00 2.774229699166336216e-01 -5.744671673312027327e-01 4.881767678299712698e-01 3.813214776946260987e-01 -2.963944616359367235e+00 4.542428644969512597e+00 -5.630506184487149568e+00 5.740766411068584096e-01 -5.968363357729020713e+00 -6.621368085819110405e-01 -2.219668691427845619e+00 -2.572326317134760121e+00 0.000000000000000000e+00 0.000000000000000000e+00 0.000000000000000000e+00 -2.097684657637458765e-15 -2.083611164136222687e-15 0.000000000000000000e+00 5.558166611054868322e-16 6.633102930819541984e-16 0.000000000000000000e+00 3.635228137718816256e-15 3.846663846674640640e-15 -3.650449346653640309e-15 0.000000000000000000e+00 0.000000000000000000e+00 0.000000000000000000e+00 0.000000000000000000e+00 2.504252662914870165e-15 5.034863653173401316e-15 0.000000000000000000e+00 -4.712853596386847641e-15 -1.159538371886600595e-16 3.635228137718816256e-15 3.846663846674640640e-15 -3.650449346653640309e-15 0.000000000000000000e+00 2.996702856547364708e-15 -4.254307630560131408e-15 0.000000000000000000e+00 -6.679760483542521309e-15 4.354232327756684817e-15 0.000000000000000000e+00 -9.582861782019930564e-16 -5.225967100761761684e-15 3.635228137718816256e-15 3.846663846674640640e-15 -3.650449346653640309e-15 0.000000000000000000e+00 0.000000000000000000e+00 0.000000000000000000e+00 0.000000000000000000e+00 -4.555854420461933732e-16 4.139865078744802449e-15 0.000000000000000000e+00 -2.755988926843941301e-15 -1.460437191557307900e-15 3.635228137718816256e-15 3.846663846674640640e-15 -3.650449346653640309e-15 0.000000000000000000e+00 0.000000000000000000e+00 0.000000000000000000e+00 0.000000000000000000e+00 -2.622162399023050157e-15 8.512189465685942241e-15 0.000000000000000000e+00 6.434537977250627459e-16 1.169625071540148894e-15 -3.728342648578370500e-01 -1.223871378216156769e+00 3.277164956596603784e-01 5.088925270555824110e-01 7.675798364836611265e-01 -7.202392229374987576e-01 -8.547392032848827315e-01 -3.444410739236075880e+00 -1.159788844627133830e+00 2.997175585118699859e-01 -1.537523596622233812e+00 6.670432294632948622e-01 0.000000000000000000e+00 0.000000000000000000e+00 0.000000000000000000e+00 3.423026291913079407e-15 -1.126148125964047891e-14 0.000000000000000000e+00 2.077742471152924615e-15 -4.337046712150990521e-15 0.000000000000000000e+00 3.407915060852526781e-15 9.380805523552472282e-17 -1.453329585924029230e-15 0.000000000000000000e+00 0.000000000000000000e+00 0.000000000000000000e+00 0.000000000000000000e+00 4.475427456615859978e-15 -3.029996268588987585e-15 0.000000000000000000e+00 8.912908590146937734e-16 4.525880285405439836e-15 3.407915060852526781e-15 9.380805523552472282e-17 -1.453329585924029230e-15 0.000000000000000000e+00 -7.870135801106299907e-17 -1.550085837910544583e-15 0.000000000000000000e+00 8.059228638718168533e-16 -3.496889221748712591e-15 0.000000000000000000e+00 -4.820186015112379413e-16 2.301986184687762204e-15 3.407915060852526781e-15 9.380805523552472282e-17 -1.453329585924029230e-15 0.000000000000000000e+00 0.000000000000000000e+00 0.000000000000000000e+00 0.000000000000000000e+00 -1.564810821273196386e-15 2.894477289119417985e-15 0.000000000000000000e+00 -9.938429180339427328e-16 4.274120148626447316e-15 3.407915060852526781e-15 9.380805523552472282e-17 -1.453329585924029230e-15 0.000000000000000000e+00 0.000000000000000000e+00 0.000000000000000000e+00 0.000000000000000000e+00 3.059386584989666538e-16 -1.779701708389972950e-15 0.000000000000000000e+00 -1.562659403015275999e-15 1.614281235512085357e-15
6.000000000000000000e+02 0.000000000000000000e+00 0.000000000000000000e+00 0.000000000000000000e+00 0.000000000000000000e+00 0.000000000000000000e+00 3.025797643507464607e-01 7.536337960217559528e-01 1.734855637057985289e+00 -1.762720669630665427e+00 -1.845660796565977424e-02 -2.372207223484448235e+00 8.479190291023530612e-01 3.324124649118989083e-01 -6.933042079209837949e-01 -1.427107099682066504e+00 3.920812721762433339e-01 3.888551520956311514e-01 4.420639194757526591e-02 1.017064529908555670e-01 -6.293720853665365489e-01 -5.765415372714085551e-01 -1.275412984681337569e+00 5.524000122822421144e-01 -2.757633996143771693e+00 -9.736314342442078384e-01 -2.833737683104340377e+00 1.290636902604252456e-01 2.707199257787313851e-01 3.471821010112244865e-01 3.340580584779678786e-02 1.152774900036249439e-01 8.016609559102354232e-02 5.669310021880789863e-02 2.130093053126483615e-01 1.059630937859004085e-01 4.933414607003723529e-02 -2.172396261563582648e-02 -2.839995107138985550e-02 2.043036447786160670e-01 4.329216238161601171e-01 -1.740258242282638035e+00 9.469469038670673688e-01 -1.750076095788138275e+00 1.202295563667523881e+00 2.984803108080658629e-01 -5.763839007242474999e-01 5.154744048703484571e-01 6.394998192066250753e-02 -2.840878564941605511e+00 4.451659780953579393e+00 -5.533433531440857145e+00 2.165770838816690191e-01 -5.713786150620796533e+00 -5.857245438485594313e-01 -2.190406740160438126e+00 -2.555426374657599808e+00 0.000000000000000000e+00 0.000000000000000000e+00 0.000000000000000000e+00 -2.022424383962708094e-15 -2.199635720864049176e-15 0.000000000000000000e+00 4.443854014147810610e-16 4.078955029481751545e-16 0.000000000000000000e+00 3.227886361711250661e-15 3.774614741331552982e-15 -3.590686539663198803e-15 0.000000000000000000e+00 0.000000000000000000e+00 0.000000000000000000e+00 0.000000000000000000e+00 2.386122738216337874e-15 5.523807321374294905e-15 0.000000000000000000e+00 -4.497584369730221412e-15 -7.339601768891960120e-16 3.227886361711250661e-15 3.774614741331552982e-15 -3.590686539663198803e-15 0.000000000000000000e+00 2.914095680254708345e-15 -3.991999944196959511e-15 0.000000000000000000e+00 -6.287958928603218345e-15 4.681813598476555357e-15 0.000000000000000000e+00 -1.394243214229792859e-15 -6.520390876037905944e-15 3.227886361711250661e-15 3.774614741331552982e-15 -3.590686539663198803e-15 0.000000000000000000e+00 0.000000000000000000e+00 0.000000000000000000e+00 0.000000000000000000e+00 -4.540109215299920649e-16 4.779342679529330464e-15 0.000000000000000000e+00 -2.808581374185576178e-15 -3.129348444743115080e-15 3.227886361711250661e-15 3.774614741331552982e-15 -3.590686539663198803e-15 0.000000000000000000e+00 0.000000000000000000e+00 0.000000000000000000e+00 0.000000000000000000e+00 -2.123039473678913946e-15 8.181852733973860500e-15 0.000000000000000000e+00 5.009116329691639698e-16 -2.176717421462075461e-16 -4.547701607499832765e-01 -1.180229878537101484e+00 3.973057174135320446e-01 6.056216364838484800e-01 7.693938896411736117e-01 -8.213450530731974952e-01 -8.615127466416240276e-01 -3.363374386615947564e+00 -1.164493908509513620e+00 2.568728036432449402e-01 -1.585502730072873456e+00 5.894904485214054191e-01 0.000000000000000000e+00 0.000000000000000000e+00 0.000000000000000000e+00 3.083631803421070884e-15 -1.060630934029505951e-14 0.000000000000000000e+00 2.086669099425157658e-15 -4.369046455254320980e-15 0.000000000000000000e+00 3.418224321671060392e-15 1.951271215847706804e-16 -1.357014234259591684e-15 0.000000000000000000e+00 0.000000000000000000e+00 0.000000000000000000e+00 0.000000000000000000e+00 4.279407990680824255e-15 -3.032555428940311857e-15 0.000000000000000000e+00 7.073959342616739773e-16 5.638849212105221911e-15 3.418224321671060392e-15 1.951271215847706804e-16 -1.357014234259591684e-15 0.000000000000000000e+00 -3.354121828657345650e-16 -1.647358350925106760e-15 0.000000000000000000e+00 5.335083429609399745e-16 -2.620394607423062717e-15 0.000000000000000000e+00 -9.661270679415269456e-16 3.543983464479081835e-15 3.418224321671060392e-15 1.951271215847706804e-16 -1.357014234259591684e-15 0.000000000000000000e+00 0.000000000000000000e+00 0.000000000000000000e+00 0.000000000000000000e+00 -1.693511210307839321e-15 3.555781741524949431e-15 0.000000000000000000e+00 -1.127666006616655616e-15 6.358890334337382292e-15 3.418224321671060392e-15 1.951271215847706804e-16 -1.357014234259591684e-15 0.000000000000000000e+00 0.000000000000000000e+00 0.000000000000000000e+00 0.000000000000000000e+00 -2.929093342140158065e-16 -1.290340853965800023e-15 0.000000000000000000e+00 -1.393442042530432523e-15 2.295539409541377501e-15
